<?xml version="1.0" encoding="UTF-8"?>
<svg width="1200" height="800" viewBox="0 0 1200 800" xmlns="http://www.w3.org/2000/svg" xmlns:xlink="http://www.w3.org/1999/xlink">
    <path id="Path" fill="#FFFFFF" stroke="none" d="M 927.071045 387.45755 L 927.071045 460.039154 L 950.347351 460.039154 L 950.347351 411.714355 L 1035.062256 411.714355 L 1035.062256 460.039154 L 1058.322021 460.039154 L 1058.322021 387.583405 L 927.071045 387.45755 M 947.753723 363.979156 L 1037.255127 363.979156 C 1049.686646 361.508087 1058.931641 350.537384 1061.538452 339.924408 L 923.473755 339.924408 C 926.054138 350.54071 935.434875 361.508087 947.753723 363.979156 M 856.576233 460.08551 C 868.312134 455.110291 874.62561 446.504639 877.04364 436.434906 L 772.646301 436.434906 L 772.712585 339.984039 L 749.310364 340.050293 L 749.310364 460.08551 L 856.576233 460.08551 M 575.282776 363.654541 L 657.940735 363.654541 C 670.402039 360.034088 680.865906 350.54071 683.416504 340.017151 L 552.112427 340.017151 L 552.112427 410.952484 L 659.580383 410.952484 L 659.580383 435.845276 L 575.282776 435.91153 C 562.072876 439.59494 550.8703 448.465576 545.282227 460.18158 L 552.112427 460.055725 L 682.671265 460.055725 L 682.671265 387.368103 L 575.282776 387.368103 L 575.282776 363.654541 M 371.22818 363.883087 L 460.699738 363.883087 C 473.147797 361.4021 482.399384 350.441315 484.992981 339.81842 L 346.934906 339.81842 C 349.511963 350.441315 358.899353 361.4021 371.22818 363.883087 M 371.22818 411.323486 L 460.699738 411.323486 C 473.147797 408.868988 482.399384 397.898285 484.992981 387.268738 L 346.934906 387.268738 C 349.511963 397.901581 358.899353 408.868988 371.22818 411.323486 M 371.22818 460.072266 L 460.699738 460.072266 C 473.147797 457.5979 482.399384 446.630493 484.992981 436.014221 L 346.934906 436.014221 C 349.511963 446.63382 358.899353 457.5979 371.22818 460.072266 M 138.461533 340.109894 C 141.151215 350.600311 150.233856 361.322601 162.69516 364.008972 L 200.3573 364.008972 L 202.278503 364.767517 L 202.278503 459.803955 L 225.796631 459.803955 L 225.796631 364.767517 L 227.933136 364.008972 L 265.628418 364.008972 C 278.228821 360.762817 287.116028 350.600311 289.759338 340.109894 L 289.759338 339.878052 L 138.461533 339.878052 L 138.461533 340.109894"/>
</svg>